<svg xmlns="http://www.w3.org/2000/svg" viewBox="0 0 900 600">
<defs>
  <pattern id="fl4" x="0" y="0" width="120" height="120" patternUnits="userSpaceOnUse">
    <rect width="120" height="120" fill="#27272b"/>
    <rect x="1" y="1" width="58" height="58" fill="#fff" fill-opacity="0.028"/>
    <rect x="62" y="62" width="58" height="58" fill="#fff" fill-opacity="0.028"/>
    <line x1="0"  y1="0"  x2="0"   y2="120" stroke="#1c1c1f" stroke-width="1"/>
    <line x1="60" y1="0"  x2="60"  y2="120" stroke="#1c1c1f" stroke-width="1"/>
    <line x1="0"  y1="0"  x2="120" y2="0"   stroke="#1c1c1f" stroke-width="1"/>
    <line x1="0"  y1="60" x2="120" y2="60"  stroke="#1c1c1f" stroke-width="1"/>
  </pattern>
</defs>

<!-- Frozen game scene visible underneath -->
<rect width="900" height="600" fill="url(#fl4)"/>
<rect x="5"   y="5"   width="890" height="590" fill="none" stroke="#444448" stroke-width="10"/>
<rect x="10"  y="10"  width="880" height="580" fill="none" stroke="#5a5a60" stroke-width="2"/>
<rect x="179" y="159" width="42" height="42" fill="#2a6b2a" fill-opacity="0.5" stroke="#1a4a1a" stroke-width="2"/>
<rect x="639" y="339" width="42" height="42" fill="#2a6b2a" fill-opacity="0.5" stroke="#1a4a1a" stroke-width="2"/>
<circle cx="420" cy="450" r="18" fill="#c85a00" fill-opacity="0.45"/>
<circle cx="570" cy="205" r="18" fill="#c85a00" fill-opacity="0.45"/>
<!-- Frozen player + enemies -->
<ellipse cx="450" cy="315" rx="11" ry="8" fill="#2255cc" fill-opacity="0.55"/>
<circle  cx="461" cy="315" r="8"          fill="#d4a97a" fill-opacity="0.45"/>
<ellipse cx="160" cy="410" rx="11" ry="8" fill="#991111" fill-opacity="0.45" transform="rotate(-19, 160, 410)"/>
<circle  cx="170" cy="406" r="8"          fill="#d4a97a" fill-opacity="0.35"/>
<ellipse cx="720" cy="155" rx="11" ry="8" fill="#cc6622" fill-opacity="0.45" transform="rotate(150, 720, 155)"/>
<circle  cx="710" cy="161" r="8"          fill="#d4a97a" fill-opacity="0.35"/>

<!-- Pause overlay -->
<rect width="900" height="600" fill="#000" fill-opacity="0.62"/>

<!-- Panel: 340×340 centered (280, 130) – (620, 470) -->
<rect x="280" y="130" width="340" height="340" rx="12" fill="#2d2d32"/>
<rect x="280" y="130" width="340" height="340" rx="12" fill="none" stroke="#444448" stroke-width="2"/>

<!-- Title -->
<text x="450" y="174" text-anchor="middle"
      fill="#e0e0e0" font-family="'Courier New',monospace" font-size="22" font-weight="bold" letter-spacing="0.24em">PAUSED</text>

<!-- Separator -->
<line x1="296" y1="190" x2="604" y2="190" stroke="#3a3a3e" stroke-width="1"/>

<!-- VOLUME section -->
<text x="300" y="215" fill="#888888" font-family="'Courier New',monospace" font-size="11" letter-spacing="0.12em">VOLUME</text>
<!-- Track -->
<rect x="300" y="222" width="300" height="6" rx="3" fill="#1a1a1a"/>
<!-- Fill 80% -->
<rect x="300" y="222" width="240" height="6" rx="3" fill="#ff9955"/>
<!-- Thumb -->
<circle cx="540" cy="225" r="9" fill="#ffffff" stroke="#ff9955" stroke-width="2"/>
<!-- Value -->
<text x="620" y="229" fill="#ff9955" font-family="'Courier New',monospace" font-size="12">80%</text>

<!-- DIFFICULTY section -->
<text x="300" y="263" fill="#888888" font-family="'Courier New',monospace" font-size="11" letter-spacing="0.12em">DIFFICULTY</text>
<!-- Easy (inactive) -->
<rect x="300" y="271" width="84" height="28" rx="4" fill="#1a1a1a" stroke="#3a3a3e" stroke-width="1"/>
<text x="342" y="289" text-anchor="middle" fill="#666666" font-family="'Courier New',monospace" font-size="11">EASY</text>
<!-- Normal (active) -->
<rect x="394" y="271" width="84" height="28" rx="4" fill="#ff4422"/>
<rect x="394" y="271" width="84" height="28" rx="4" fill="none" stroke="#ff6644" stroke-width="1"/>
<text x="436" y="289" text-anchor="middle" fill="#ffffff" font-family="'Courier New',monospace" font-size="11" font-weight="bold">NORMAL</text>
<!-- Hard (inactive) -->
<rect x="488" y="271" width="84" height="28" rx="4" fill="#1a1a1a" stroke="#3a3a3e" stroke-width="1"/>
<text x="530" y="289" text-anchor="middle" fill="#666666" font-family="'Courier New',monospace" font-size="11">HARD</text>

<!-- Section separator -->
<line x1="296" y1="314" x2="604" y2="314" stroke="#3a3a3e" stroke-width="1"/>

<!-- RESUME button -->
<rect x="300" y="325" width="300" height="38" rx="4" fill="#22aa44"/>
<rect x="300" y="325" width="300" height="38" rx="4" fill="none" stroke="#33cc55" stroke-width="1"/>
<text x="450" y="349" text-anchor="middle"
      fill="#ffffff" font-family="'Courier New',monospace" font-size="14" font-weight="bold" letter-spacing="0.14em">RESUME</text>

<!-- RESTART button -->
<rect x="300" y="373" width="144" height="32" rx="4" fill="#252530" stroke="#444448" stroke-width="1"/>
<text x="372" y="394" text-anchor="middle"
      fill="#cccccc" font-family="'Courier New',monospace" font-size="12" letter-spacing="0.06em">RESTART</text>

<!-- MAIN MENU button -->
<rect x="456" y="373" width="144" height="32" rx="4" fill="#252530" stroke="#444448" stroke-width="1"/>
<text x="528" y="394" text-anchor="middle"
      fill="#cccccc" font-family="'Courier New',monospace" font-size="12" letter-spacing="0.04em">MAIN MENU</text>

<!-- ESC hint -->
<text x="450" y="455" text-anchor="middle"
      fill="#444444" font-family="'Courier New',monospace" font-size="10">ESC  ·  resume</text>

<!-- HUD still rendered behind overlay: HP top-right -->
<text x="890" y="24" text-anchor="end" fill="#ee4444" font-family="'Courier New',monospace" font-size="12" font-weight="bold">HP</text>
<circle cx="866" cy="18" r="7" fill="#ee4444" fill-opacity="0.5" stroke="#666" stroke-width="1"/>
<circle cx="846" cy="18" r="7" fill="#ee4444" fill-opacity="0.5" stroke="#666" stroke-width="1"/>
<circle cx="826" cy="18" r="7" fill="#333"    stroke="#666" stroke-width="1"/>
<circle cx="806" cy="18" r="7" fill="#333"    stroke="#666" stroke-width="1"/>

<!-- Minimap still visible -->
<rect x="14" y="486" width="150" height="100" fill="#000" fill-opacity="0.72" stroke="#3a3a3e" stroke-width="1"/>
<text x="18" y="495" fill="#3a3a3e" font-family="'Courier New',monospace" font-size="8">RADAR</text>
<circle cx="41"  cy="554" r="2"   fill="#cc2200"/>
<circle cx="134" cy="512" r="2.5" fill="#ff8833"/>
<circle cx="89"  cy="539" r="3"   fill="#4488ff" stroke="#fff" stroke-width="0.8"/>
</svg>
